# xmcd
#
# Track frame offsets: 
#        150
#        28423
#        60119
#        93746
#        123357
#        146842
#        186370
#        229659
#        258141
#        284309
#
# Disc length: 4231 seconds
#
# Revision: 4
# Processed by: cddbd v1.5.2PL0 Copyright (c) Steve Scherf et al.
# Submitted via: ExactAudioCopy v1.0b1
#
DISCID=8e10850a
DTITLE=Various Artist - Amberdelic Space II - Angel Of Ecstasy CD3
DYEAR=1997
DGENRE=Downtempo, Dub, Techno, Ambient, Breakbeat, Drum n Bass
TTITLE0=Josh Abrahams - Marakesh
TTITLE1=Transfinite - Insofinite
TTITLE2=Alien Mutation - Shimmer
TTITLE3=Luke Warmwater - Jazz Bass Nine
TTITLE4=Syzygy - Namaste
TTITLE5=Fluid - The Man With Three Heads
TTITLE6=Green Light - L7
TTITLE7=Swarf Sisters - Hebron
TTITLE8=Carl Cox - Sensual Sophis-Ti-Cat
TTITLE9=Optica - Space Bong Baby
EXTD=
EXTT0=
EXTT1=
EXTT2=
EXTT3=
EXTT4=
EXTT5=
EXTT6=
EXTT7=
EXTT8=
EXTT9=
PLAYORDER=
